<svg viewBox="0 0 32 32" xmlns="http://www.w3.org/2000/svg" aria-hidden="true"><filter id="ol" x="-16%" y="-16%" width="132%" height="132%" color-interpolation-filters="sRGB"><feMorphology in="SourceAlpha" operator="dilate" radius="0.85" result="d"/><feFlood flood-color="#37302a" result="c"/><feComposite in="c" in2="d" operator="in" result="r"/><feMerge><feMergeNode in="r"/><feMergeNode in="SourceGraphic"/></feMerge></filter><g filter="url(#ol)"><g class="a" transform="translate(-1.723 -3.073) scale(1.1077)"><rect x="4.00" y="15.00" width="5.2" height="2.2" rx="1.1" fill="#feea74" transform="rotate(0 16 16)"/><rect x="5.50" y="10.00" width="4.6" height="2.2" rx="1.1" fill="#feea74" transform="rotate(18 16 16)"/><rect x="22.80" y="15.00" width="5.2" height="2.2" rx="1.1" fill="#feea74" transform="rotate(0 16 16)"/><rect x="21.90" y="10.00" width="4.6" height="2.2" rx="1.1" fill="#feea74" transform="rotate(-18 16 16)"/><path fill="#ff4040" d="M8.6 20.4 A7.4 7.4 0 0 1 23.4 20.4 Z"/><path fill="#ff9090" opacity="0.55" d="M11.4 19.4 A4.6 4.6 0 0 1 14.6 14.2 L13.2 19.4 Z"/><rect x="7.2" y="20.4" width="17.6" height="3.6" rx="1.2" fill="#9aa3ad"/><rect x="10.4" y="24.0" width="11.2" height="3.0" rx="1.0" fill="#5f656b"/></g></g></svg>