<svg viewBox="0 0 32 32" xmlns="http://www.w3.org/2000/svg" aria-hidden="true"><filter id="ol" x="-16%" y="-16%" width="132%" height="132%" color-interpolation-filters="sRGB"><feMorphology in="SourceAlpha" operator="dilate" radius="0.85" result="d"/><feFlood flood-color="#37302a" result="c"/><feComposite in="c" in2="d" operator="in" result="r"/><feMerge><feMergeNode in="r"/><feMergeNode in="SourceGraphic"/></feMerge></filter><g filter="url(#ol)"><g class="a" transform="translate(-1.103 -0.552) scale(1.0173)"><circle cx="16" cy="8.6" r="4.6" fill="#88ff4d"/><path fill="#3a7a1a" d="M11.0 8.0 Q11.0 3.0 16 3.0 Q21.0 3.0 21.0 8.0 Z"/><path fill="#88ff4d" d="M16 14.0 Q22.6 14.0 24.2 20.4 L25.4 28.0 Q25.6 29.4 24.2 29.4 L7.8 29.4 Q6.4 29.4 6.6 28.0 L7.8 20.4 Q9.4 14.0 16 14.0 Z"/><path fill="#4a8c2a" opacity="0.35" d="M13.4 14.6 L18.6 14.6 L18.6 29.4 L13.4 29.4 Z"/><rect x="19.6" y="13.4" width="3.4" height="5.6" rx="1.2" fill="#7f96a6"/><rect x="23.6" y="13.4" width="3.4" height="5.6" rx="1.2" fill="#7f96a6"/><rect x="22.4" y="14.6" width="2.0" height="1.6" fill="#7f96a6"/></g></g></svg>