<svg viewBox="0 0 32 32" xmlns="http://www.w3.org/2000/svg" aria-hidden="true"><filter id="ol" x="-16%" y="-16%" width="132%" height="132%" color-interpolation-filters="sRGB"><feMorphology in="SourceAlpha" operator="dilate" radius="0.85" result="d"/><feFlood flood-color="#37302a" result="c"/><feComposite in="c" in2="d" operator="in" result="r"/><feMerge><feMergeNode in="r"/><feMergeNode in="SourceGraphic"/></feMerge></filter><g filter="url(#ol)"><g class="a" transform="translate(2.008 2.363) scale(0.8745)"><rect x="0.8" y="11.4" width="30.4" height="4.6" rx="2.3" fill="#88cc99"/><ellipse cx="5.6" cy="10.2" rx="1.6" ry="2.4" fill="#517a5b"/><ellipse cx="10.4" cy="10.2" rx="1.6" ry="2.4" fill="#517a5b"/><ellipse cx="21.6" cy="10.2" rx="1.6" ry="2.4" fill="#517a5b"/><ellipse cx="26.4" cy="10.2" rx="1.6" ry="2.4" fill="#517a5b"/><path fill="#a2d7af" d="M16 2.6 Q19.4 5.4 19.8 11 L20.2 19.6 Q20.4 24.4 18.4 26.6 L13.6 26.6 Q11.6 24.4 11.8 19.6 L12.2 11 Q12.6 5.4 16 2.6 Z"/><path fill="#517a5b" opacity="0.55" d="M12.0 20.4 Q16 23.8 20.0 20.4 L19.6 25.4 Q16 27.8 12.4 25.4 Z"/><rect x="9.2" y="26.0" width="13.6" height="2.6" rx="1.3" fill="#88cc99"/><ellipse cx="16" cy="8.4" rx="1.5" ry="2.8" fill="#8fb8d8"/></g></g></svg>