<svg viewBox="0 0 32 32" xmlns="http://www.w3.org/2000/svg" aria-hidden="true"><filter id="ol" x="-16%" y="-16%" width="132%" height="132%" color-interpolation-filters="sRGB"><feMorphology in="SourceAlpha" operator="dilate" radius="0.85" result="d"/><feFlood flood-color="#37302a" result="c"/><feComposite in="c" in2="d" operator="in" result="r"/><feMerge><feMergeNode in="r"/><feMergeNode in="SourceGraphic"/></feMerge></filter><g filter="url(#ol)"><g class="a" transform="translate(-0.615 0.510) scale(1.0385)"><rect x="3.2" y="11.4" width="25.6" height="5.0" rx="2.50" fill="#80d0aa"/><rect x="11.0" y="22.8" width="10.0" height="2.9" rx="1.45" fill="#80d0aa"/><path fill="#4c7c66" d="M14.0 5.8 L18.0 5.8 Q18.6 12 18.1 19.5 Q17.7 25.8 16 27.2 Q14.3 25.8 13.9 19.5 Q13.4 12 14.0 5.8 Z"/><circle cx="16" cy="6.0" r="3.4" fill="#395d4c"/><circle cx="16" cy="6.0" r="1.3" fill="#9bdabc"/><ellipse cx="16" cy="12.0" rx="1.5" ry="2.9" fill="#8fb8d8"/><rect x="6.9" y="14.0" width="3.0" height="11.5" rx="1.5" fill="#9bdabc"/><rect x="6.9" y="14.0" width="3.0" height="2.4" rx="1.2" fill="#4c7c66"/><rect x="7.9" y="11.6" width="1.0" height="3.0" fill="#4c7c66"/><rect x="22.1" y="14.0" width="3.0" height="11.5" rx="1.5" fill="#9bdabc"/><rect x="22.1" y="14.0" width="3.0" height="2.4" rx="1.2" fill="#4c7c66"/><rect x="23.1" y="11.6" width="1.0" height="3.0" fill="#4c7c66"/></g></g></svg>