<svg viewBox="0 0 32 32" xmlns="http://www.w3.org/2000/svg" aria-hidden="true"><filter id="ol" x="-16%" y="-16%" width="132%" height="132%" color-interpolation-filters="sRGB"><feMorphology in="SourceAlpha" operator="dilate" radius="0.85" result="d"/><feFlood flood-color="#37302a" result="c"/><feComposite in="c" in2="d" operator="in" result="r"/><feMerge><feMergeNode in="r"/><feMergeNode in="SourceGraphic"/></feMerge></filter><g filter="url(#ol)"><g class="a" transform="translate(-1.338 -1.338) scale(1.0836)"><path fill="#b57f65" fill-rule="evenodd" d="M16 16 m-12.0 0 a12.0 12.0 0 1 0 24.0 0 a12.0 12.0 0 1 0 -24.0 0 M16 16 m-5.6 0 a5.6 5.6 0 1 0 11.2 0 a5.6 5.6 0 1 0 -11.2 0"/><g transform="rotate(0 16 16)"><rect x="13.4" y="3.6" width="5.2" height="6.4" rx="1.3" fill="#e4d8c8"/></g><g transform="rotate(90 16 16)"><rect x="13.4" y="3.6" width="5.2" height="6.4" rx="1.3" fill="#e4d8c8"/></g><g transform="rotate(180 16 16)"><rect x="13.4" y="3.6" width="5.2" height="6.4" rx="1.3" fill="#e4d8c8"/></g><g transform="rotate(270 16 16)"><rect x="13.4" y="3.6" width="5.2" height="6.4" rx="1.3" fill="#e4d8c8"/></g></g></g></svg>